<svg width="222" height="70" viewBox="0 0 222 70" fill="none" xmlns="http://www.w3.org/2000/svg">
<path fill-rule="evenodd" clip-rule="evenodd" d="M209.19 58.7149C209.27 62.7046 211.369 65.1045 214.831 65.1045H215.039V62.8212C216.298 62.9501 217.243 63.8892 217.624 65.1045H219.44C218.949 63.2877 217.667 62.2811 216.875 61.9005C217.667 61.4279 218.79 60.274 219.054 58.7149H217.403C217.059 59.9855 216.028 61.1333 215.039 61.2438V58.7149H213.358V63.1404C212.333 62.8887 211.001 61.6427 210.945 58.7149H209.19ZM214.598 69.3888H213.959H213.901C210.472 69.3889 208.742 69.3889 207.674 68.3147C206.6 67.2344 206.6 65.5035 206.6 62.0417V61.3911V61.3329C206.6 57.9158 206.6 56.1862 207.674 55.1181C208.754 54.0439 210.491 54.0439 213.959 54.0439H214.598C218.066 54.0439 219.803 54.0439 220.877 55.1181C221.945 56.1984 221.945 57.9293 221.945 61.3911V62.0417C221.945 65.4974 221.945 67.2344 220.877 68.3147C219.803 69.3888 218.066 69.3888 214.598 69.3888ZM151.493 57.055V70.0004H153.539V64.9294C153.906 65.3817 154.381 65.7626 154.962 66.0721C155.543 66.3697 156.207 66.5185 156.954 66.5185C157.819 66.5185 158.596 66.3162 159.284 65.9114C159.972 65.4948 160.505 64.9234 160.885 64.1973C161.276 63.4593 161.472 62.626 161.472 61.6975C161.472 60.769 161.276 59.9417 160.885 59.2156C160.505 58.4775 159.972 57.9061 159.284 57.5014C158.596 57.0848 157.819 56.8765 156.954 56.8765C156.183 56.8765 155.501 57.0431 154.908 57.3764C154.315 57.6978 153.829 58.0907 153.45 58.5549L153.023 57.055H151.493ZM158.537 63.858C158.003 64.4056 157.31 64.6794 156.456 64.6794C155.59 64.6794 154.885 64.4056 154.339 63.858C153.805 63.2986 153.539 62.5784 153.539 61.6975C153.539 60.8166 153.805 60.1024 154.339 59.5548C154.885 58.9953 155.59 58.7156 156.456 58.7156C157.31 58.7156 158.003 58.9953 158.537 59.5548C159.07 60.1024 159.337 60.8166 159.337 61.6975C159.337 62.5784 159.07 63.2986 158.537 63.858ZM141.036 66.34H143.082V58.9299H147.137V66.34H149.183V57.055H141.036V66.34ZM167.664 66.5185C166.715 66.5185 165.862 66.3162 165.103 65.9114C164.356 65.4948 163.769 64.9234 163.342 64.1973C162.927 63.4593 162.719 62.626 162.719 61.6975C162.719 60.769 162.927 59.9417 163.342 59.2156C163.769 58.4775 164.356 57.9061 165.103 57.5014C165.862 57.0848 166.715 56.8765 167.664 56.8765C168.613 56.8765 169.461 57.0848 170.208 57.5014C170.967 57.9061 171.554 58.4775 171.969 59.2156C172.395 59.9417 172.609 60.769 172.609 61.6975C172.609 62.626 172.395 63.4593 171.969 64.1973C171.554 64.9234 170.967 65.4948 170.208 65.9114C169.461 66.3162 168.613 66.5185 167.664 66.5185ZM167.664 64.6437C168.494 64.6437 169.17 64.3759 169.692 63.8402C170.214 63.2926 170.474 62.5784 170.474 61.6975C170.474 60.8166 170.214 60.1083 169.692 59.5727C169.17 59.0251 168.494 58.7513 167.664 58.7513C166.834 58.7513 166.158 59.0251 165.636 59.5727C165.115 60.1083 164.854 60.8166 164.854 61.6975C164.854 62.5784 165.115 63.2926 165.636 63.8402C166.158 64.3759 166.834 64.6437 167.664 64.6437ZM183.423 62.251C183.447 61.9891 183.459 61.7689 183.459 61.5904C183.459 60.7095 183.251 59.9119 182.836 59.1977C182.433 58.4716 181.864 57.9061 181.129 57.5014C180.405 57.0848 179.581 56.8765 178.656 56.8765C177.731 56.8765 176.901 57.0848 176.166 57.5014C175.443 57.9061 174.873 58.4775 174.458 59.2156C174.055 59.9417 173.854 60.769 173.854 61.6975C173.854 62.626 174.055 63.4593 174.458 64.1973C174.873 64.9234 175.443 65.4948 176.166 65.9114C176.901 66.3162 177.731 66.5185 178.656 66.5185C179.652 66.5185 180.553 66.2864 181.36 65.8222C182.178 65.3579 182.753 64.6973 183.085 63.8402L181.164 63.5188C180.939 63.864 180.613 64.1378 180.186 64.3401C179.771 64.5425 179.302 64.6437 178.781 64.6437C178.01 64.6437 177.376 64.4294 176.877 64.0009C176.379 63.5604 176.083 62.9772 175.988 62.251H183.423ZM177.038 59.1977C177.5 58.8406 178.04 58.662 178.656 58.662C179.285 58.662 179.824 58.8465 180.275 59.2156C180.737 59.5727 181.057 60.0488 181.235 60.644H176.113C176.279 60.0369 176.587 59.5548 177.038 59.1977ZM193.484 66.34H190.798L187.596 62.6439H187.098V66.34H185.053V57.055H187.098V60.6619H187.596L190.691 57.055H193.128L189.233 61.5189L193.484 66.34ZM196.953 66.34H198.999V58.9299H202.201V57.055H193.752V58.9299H196.953V66.34Z" fill="#AAAEB3"/>
</svg>
